HIERARCHY
ROOT hip
{
  OFFSET 0 0 0
  CHANNELS 6 Xposition Yposition Zposition Zrotation Yrotation Xrotation
  JOINT abdomen
  {
    OFFSET 0 20.6881 -0.73152
    CHANNELS 3 Zrotation Xrotation Yrotation
    JOINT chest
    {
      OFFSET 0 11.7043 -0.48768
      CHANNELS 3 Zrotation Xrotation Yrotation
      JOINT neck
      {
        OFFSET 0 22.1894 -2.19456
        CHANNELS 3 Zrotation Xrotation Yrotation
        JOINT head
        {
          OFFSET -0.24384 7.07133 1.2192
          CHANNELS 3 Zrotation Xrotation Yrotation
          JOINT leftEye
          {
            OFFSET 4.14528 8.04674 8.04672
            CHANNELS 3 Zrotation Xrotation Yrotation
            End Site
            {
              OFFSET 1 0 0
            }
          }
          JOINT rightEye
          {
            OFFSET -3.6576 8.04674 8.04672
            CHANNELS 3 Zrotation Xrotation Yrotation
            End Site
            {
              OFFSET 1 0 0
            }
          }
        }
      }
      JOINT rCollar
      {
        OFFSET -2.68224 19.2634 -4.8768
        CHANNELS 3 Zrotation Xrotation Yrotation
        JOINT rShldr
        {
          OFFSET -8.77824 -1.95073 1.46304
          CHANNELS 3 Zrotation Xrotation Yrotation
          JOINT rForeArm
          {
            OFFSET -28.1742 -1.7115 0.48768
            CHANNELS 3 Zrotation Xrotation Yrotation
            JOINT rHand
            {
              OFFSET -22.5879 0.773209 7.07136
              CHANNELS 3 Zrotation Xrotation Yrotation
              JOINT rThumb1
              {
                OFFSET -1.2192 -0.487915 3.41376
                CHANNELS 3 Zrotation Xrotation Yrotation
                JOINT rThumb2
                {
                  OFFSET -3.37035 -0.52449 3.41376
                  CHANNELS 3 Zrotation Xrotation Yrotation
                  End Site
                  {
                    OFFSET -1.78271 -1.18214 1.43049
                  }
                }
              }
              JOINT rIndex1
              {
                OFFSET -7.75947 0.938293 5.60832
                CHANNELS 3 Zrotation Xrotation Yrotation
                JOINT rIndex2
                {
                  OFFSET -2.54057 -0.884171 1.56538
                  CHANNELS 3 Zrotation Xrotation Yrotation
                  End Site
                  {
                    OFFSET -1.62519 -0.234802 1.16502
                  }
                }
              }
              JOINT rMid1
              {
                OFFSET -8.24714 1.18213 3.41376
                CHANNELS 3 Zrotation Xrotation Yrotation
                JOINT rMid2
                {
                  OFFSET -3.10165 -0.590103 1.0647
                  CHANNELS 3 Zrotation Xrotation Yrotation
                  End Site
                  {
                    OFFSET -2.48547 -0.328903 0.83742
                  }
                }
              }
              JOINT rRing1
              {
                OFFSET -8.82822 0.546677 1.51678
                CHANNELS 3 Zrotation Xrotation Yrotation
                JOINT rRing2
                {
                  OFFSET -2.60934 -0.819778 -0.0198488
                  CHANNELS 3 Zrotation Xrotation Yrotation
                  End Site
                  {
                    OFFSET -2.33842 -0.294052 0.168128
                  }
                }
              }
              JOINT rPinky1
              {
                OFFSET -8.27202 -0.0477905 -0.4584
                CHANNELS 3 Zrotation Xrotation Yrotation
                JOINT rPinky2
                {
                  OFFSET -1.82734 -0.647385 -0.700984
                  CHANNELS 3 Zrotation Xrotation Yrotation
                  End Site
                  {
                    OFFSET -1.69225 -0.51767 -0.607171
                  }
                }
              }
            }
          }
        }
      }
      JOINT lCollar
      {
        OFFSET 2.68224 19.2634 -4.8768
        CHANNELS 3 Zrotation Xrotation Yrotation
        JOINT lShldr
        {
          OFFSET 8.77824 -1.95073 1.46304
          CHANNELS 3 Zrotation Xrotation Yrotation
          JOINT lForeArm
          {
            OFFSET 28.1742 -1.7115 0.48768
            CHANNELS 3 Zrotation Xrotation Yrotation
            JOINT lHand
            {
              OFFSET 22.5879 0.773209 7.07136
              CHANNELS 3 Zrotation Xrotation Yrotation
              JOINT lThumb1
              {
                OFFSET 1.2192 -0.487915 3.41376
                CHANNELS 3 Zrotation Xrotation Yrotation
                JOINT lThumb2
                {
                  OFFSET 3.37035 -0.52449 3.41376
                  CHANNELS 3 Zrotation Xrotation Yrotation
                  End Site
                  {
                    OFFSET 1.78271 -1.18214 1.43049
                  }
                }
              }
              JOINT lIndex1
              {
                OFFSET 7.75947 0.938293 5.60832
                CHANNELS 3 Zrotation Xrotation Yrotation
                JOINT lIndex2
                {
                  OFFSET 2.54057 -0.884171 1.56538
                  CHANNELS 3 Zrotation Xrotation Yrotation
                  End Site
                  {
                    OFFSET 1.62519 -0.234802 1.16502
                  }
                }
              }
              JOINT lMid1
              {
                OFFSET 8.24714 1.18213 3.41376
                CHANNELS 3 Zrotation Xrotation Yrotation
                JOINT lMid2
                {
                  OFFSET 3.10165 -0.590103 1.0647
                  CHANNELS 3 Zrotation Xrotation Yrotation
                  End Site
                  {
                    OFFSET 2.48547 -0.328903 0.83742
                  }
                }
              }
              JOINT lRing1
              {
                OFFSET 8.82822 0.546677 1.51678
                CHANNELS 3 Zrotation Xrotation Yrotation
                JOINT lRing2
                {
                  OFFSET 2.60934 -0.819778 -0.0198488
                  CHANNELS 3 Zrotation Xrotation Yrotation
                  End Site
                  {
                    OFFSET 2.33842 -0.294052 0.168128
                  }
                }
              }
              JOINT lPinky1
              {
                OFFSET 8.27202 -0.0477905 -0.4584
                CHANNELS 3 Zrotation Xrotation Yrotation
                JOINT lPinky2
                {
                  OFFSET 1.82734 -0.647385 -0.700984
                  CHANNELS 3 Zrotation Xrotation Yrotation
                  End Site
                  {
                    OFFSET 1.69225 -0.51767 -0.607171
                  }
                }
              }
            }
          }
        }
      }
    }
  }
  JOINT rButtock
  {
    OFFSET -8.77824 4.35084 1.2192
    CHANNELS 3 Zrotation Xrotation Yrotation
    JOINT rThigh
    {
      OFFSET 0 -1.70687 -2.19456
      CHANNELS 3 Zrotation Xrotation Yrotation
      JOINT rShin
      {
        OFFSET 0 -36.8199 0.73152
        CHANNELS 3 Zrotation Xrotation Yrotation
        JOINT rFoot
        {
          OFFSET 0.73152 -45.1104 -5.12064
          CHANNELS 3 Zrotation Xrotation Yrotation
          End Site
          {
            OFFSET -1.1221 -3.69964 12.103
          }
        }
      }
    }
  }
  JOINT lButtock
  {
    OFFSET 8.77824 4.35084 1.2192
    CHANNELS 3 Zrotation Xrotation Yrotation
    JOINT lThigh
    {
      OFFSET 0 -1.70687 -2.19456
      CHANNELS 3 Zrotation Xrotation Yrotation
      JOINT lShin
      {
        OFFSET 0 -36.8199 0.73152
        CHANNELS 3 Zrotation Xrotation Yrotation
        JOINT lFoot
        {
          OFFSET -0.73152 -45.1104 -5.12064
          CHANNELS 3 Zrotation Xrotation Yrotation
          End Site
          {
            OFFSET 1.1221 -3.69964 12.103
          }
        }
      }
    }
  }
}
MOTION
Frames:	8
Frame Time:	0.03333
-52.6812 72.2835 96.30330000000001 -3.128162 -20.245603 13.602996 -15.146035 -10.44785 -56.1804 13.389769 -1.158857 53.729624 -15.728998 -2.610452 -53.661453 21.108348 24.290172 46.952985 -35.118351 -1.005214 3.175956 -35.588217 0.203184 -0.633062 -6.921655 -44.552916 -15.907255 -69.810944 50.402584 66.273275 -16.80929 -37.641961 8.618757 -9.549692 -34.997569 -23.079269 -106.638189 -7.861326 114.876046 18.317981 -66.049971 -34.08689 41.390101 -48.015491 -17.56441 174.806088 -9.96338 105.688123 -128.080176 -30.256512 147.799174 -52.640689 49.637043 103.208909 -147.127672 -9.290206 158.631398 -138.510698 -21.501425 130.599683 -84.631123 37.795792 101.85955 65.671814 -6.638597 90.72726 7.635827 26.463657 -5.382091 -57.749395 -54.028792 -53.5451 -7.220418 51.476764 -103.016124 -3.796697 -2.758442 14.106388 -82.582502 -29.607656 -42.034023 97.019297 -71.295723 82.018833 42.23569 14.840446 -33.38849 69.40417 41.17941 -51.804872 -11.881432 -27.603005 -33.975538 -176.290345 0.587948 150.530331 17.524927 22.109092 -7.464712 -45.94544 -33.866274 -29.529438 170.947812 18.97504 -171.951687 -161.758524 28.467179 -153.471461 -19.923421 -37.346309 -0.0 16.783866 -0.727967 87.587892 54.58555 -27.011169 134.196874 113.325451 78.894433 -6.130073 -23.893051 20.875829 -70.759067 76.916021 16.831482 -86.149979 -11.736376 -72.612007 62.001196 8.653188 71.744326 74.150777
-53.225 72.3124 96.1245 -2.98728 -22.69173 13.223568 -16.795794 -8.378668 0.0 7.423543 -12.94335 -1.649931 -14.299861 1.448717 -78.541307 11.919519 27.260184 72.258929 -37.119142 -2.588491 7.699242 -35.785897 2.186087 -6.764058 -160.14427 -28.003276 173.912535 -121.338027 36.030891 156.901943 -7.147502 5.033602 25.558033 -12.183362 -25.978699 -23.773604 166.756754 -73.52435 51.024076 14.408058 -17.111129 7.706643 12.575751 24.063195 4.275989 -177.077558 -34.39527 129.816566 -7.016479 50.776892 38.840008 -12.977563 7.069107 -47.880637 -170.860133 -50.99143 156.245768 49.070682 -44.171368 64.508821 171.262362 -37.124717 169.504458 -90.795132 69.107941 9.941473 157.813529 -2.973453 -163.151122 176.591418 27.203633 169.568592 114.55968 -43.567475 -82.477419 -158.765398 -34.365938 -122.702104 -177.230503 -4.978387 -68.120529 -14.798124 -39.482516 -69.478705 62.385867 15.878676 -45.837178 170.064278 -25.364435 -101.02763 -178.533266 -7.939598 -109.497107 -12.969428 -21.460188 -70.028185 21.898484 -25.597519 10.029592 101.746386 52.185098 -144.624715 43.905153 15.874774 -43.884409 11.356306 49.784376 -133.614874 18.446212 -16.608307 49.406054 -22.953097 -3.004593 -82.944611 -12.744044 57.374444 157.388161 83.13474 41.60996 171.679875 88.251299 10.992104 64.115755 -75.458948 19.022607 -94.832484 -67.818564 -15.986031 16.39446 125.533599 47.491852 -50.475188
-54.5046 72.3759 96.0533 -0.794278 -31.335902 8.701295 -19.361996 -10.771398 180.0 -5.078593 4.259314 176.325461 -1.605497 -10.453302 -1.07851 19.245011 -0.372693 -0.808831 -44.068984 -9.738339 23.772601 -21.159274 -1.64906 8.812227 -5.986252 36.702223 1.101241 170.259978 6.964281 -178.697492 19.175141 -55.049353 -46.131505 -166.77349 9.313272 122.76653 -12.211387 56.451209 31.302312 -72.856763 -5.252182 25.074292 -5.80984 38.580296 14.890568 -179.076878 -22.61168 117.676982 -32.355206 46.395247 58.908254 0.423755 -9.828175 -48.564482 72.33219 -70.401906 70.000276 -43.444418 4.598656 -5.672572 -5.507122 -54.585377 50.501886 171.145905 34.403049 -13.046574 11.275759 35.55857 -6.813458 113.955033 55.653571 -113.942531 66.576938 41.142211 84.389089 -158.958992 -36.697527 -125.069129 174.883572 -0.255133 -66.538718 -29.928008 -29.305727 -83.581049 156.398465 -15.461872 -76.155763 75.929581 31.375994 -59.27422 30.689707 6.518033 -38.977616 36.326388 -44.838297 109.924891 96.694762 -51.521108 94.817927 40.894324 -72.023837 116.529223 179.54111 0.641628 173.99743 -117.487584 -38.113814 179.100556 10.819647 -22.059549 26.970092 -13.978824 -3.793609 -0.0 49.346599 27.090714 12.715115 -27.564631 13.5348 -86.089963 22.485749 -21.220473 -20.861027 5.014483 -11.271461 0.0 -58.640412 30.380018 79.661003 52.824228 -19.362777 -21.369455
-56.1067 72.5486 95.9109 -1.184556 -36.379368 8.790175 -18.698069 -11.720479 -180.0 -4.256491 1.790451 175.668417 -4.749436 -0.142103 -93.517695 10.459559 23.416852 92.544775 -41.554004 -13.968185 35.788575 -13.652724 -1.592278 13.242776 -78.690087 -80.569569 -97.926184 -63.539399 51.330564 81.111271 174.678478 15.366674 122.881795 -167.594181 13.150391 124.958664 -155.160458 -70.896333 96.723481 -67.425312 51.246211 66.401999 21.04586 -41.486928 -30.663357 9.031875 23.22609 17.898312 20.597727 1.653308 22.511806 -47.708715 -41.453529 -45.745868 90.003569 -69.909433 90.38617 -48.511711 3.303508 -9.341284 -21.611783 -46.637492 38.551931 52.834117 -37.373445 -85.474031 3.298207 1.44406 5.010513 81.712007 57.376537 -95.929526 -64.551539 0.789709 -161.03404 51.822444 69.883568 -21.765514 171.098717 -3.910805 -65.263211 168.47394 -27.469291 -10.993063 -7.017032 10.175367 -45.635939 100.202742 68.744952 -65.230157 -90.428768 -47.095773 -70.373446 56.086946 74.056212 21.694588 168.141746 82.627017 -165.50398 -141.946662 -52.779607 -171.492045 172.108971 4.558021 174.388638 42.214438 -24.768998 -52.749454 -38.688045 -19.540408 -40.484389 35.695918 9.001721 -5.611176 8.435714 56.06044 92.213127 -3.713033 59.911782 -108.836561 -18.367438 42.160436 -71.693222 86.709613 14.882841 -73.199417 -43.857543 -67.755584 -119.810815 -90.378747 -56.974649 173.999387
-57.8097 71.9848 95.51230000000001 -2.939492 -40.224072 10.373673 -14.45489 -10.884346 -104.0899 2.440042 1.649343 101.744395 20.471843 -4.165179 102.093883 -5.588303 1.725827 -95.280946 -46.048575 -16.568944 37.825564 -5.866423 -0.789593 15.318344 -22.699543 61.326987 21.925489 -2.820947 0.801028 -15.477204 16.303471 84.448252 -70.741877 -172.403595 4.784258 127.616895 -113.922862 -0.393293 114.113367 -165.462271 -2.29911 135.252947 -130.593275 -54.96261 163.027897 13.130362 -75.576288 -61.004117 98.747587 -52.98691 56.002737 -58.471515 11.826306 22.546708 -15.609897 -14.644776 40.420395 -136.964884 5.079565 -120.171239 -38.692273 -10.733679 37.049402 -28.663094 6.56614 -157.93719 0.821459 -26.617254 9.354453 -23.676038 -6.723072 -23.743448 -57.150639 50.481237 -57.769473 8.879852 23.493037 10.786021 155.665626 0.580849 -64.256131 -119.388725 4.457035 -27.393603 -13.071611 14.427485 -46.837264 12.746186 30.783382 17.854985 -86.3035 -47.545476 -65.399714 13.523872 74.81886 60.140179 102.612705 -70.145955 95.006616 -55.424958 27.338741 24.144725 38.000498 43.27328 -43.231683 41.413755 -78.181187 106.651505 -10.018174 -35.474884 -10.079043 7.543306 5.636599 78.366498 50.09993 -7.703239 -83.835618 -117.025303 13.40001 10.191757 22.441867 -0.749895 -31.762148 20.464816 -27.747374 38.714227 -64.472974 56.379895 -135.26942 -73.210052 -4.937535 -172.159516
-59.4037 71.53819999999999 94.7474 -4.675817 -42.771293 12.450504 -15.048593 -8.649568 -2.949473 2.732111 -6.054455 2.107037 25.026533 -5.059296 103.053547 -1.777898 4.734258 -94.23748 -53.119368 -17.496897 34.221554 -1.711819 -0.227394 15.132397 -5.131216 31.05359 0.97618 175.244928 -14.095522 -174.150191 -13.652326 -84.069377 -74.64394 -176.78642 -3.415784 128.592916 81.956959 -45.638939 -11.763953 -69.061843 10.525069 83.976456 -137.021863 -2.395744 146.132791 -174.235425 46.002095 152.547045 63.041135 -40.475572 37.500916 -76.511485 55.88341 23.906009 114.623145 -58.489385 115.870269 137.759131 -25.348893 -178.800727 -44.027471 8.710026 37.742865 115.75346 -29.222706 31.141539 156.428274 -2.846694 -163.848834 174.683869 45.772642 169.626878 20.168484 49.235207 -114.811458 -7.167654 -25.290989 9.755836 176.299027 -7.458344 -66.637658 6.094616 -57.913123 -87.139079 32.783803 12.309637 -73.875301 33.58085 73.331037 -30.456232 -109.861177 -49.816401 -78.049842 56.041801 46.495672 20.659305 178.16835 -27.904184 -175.499676 -171.520518 47.84012 163.973607 139.468471 -48.488878 115.883333 -111.656242 53.245589 105.127071 -49.027748 -15.272418 -61.269584 43.757016 24.663631 48.709992 46.638172 30.179205 17.538428 -176.455858 -27.064574 106.578762 -14.796748 39.326498 -57.800579 83.356598 -1.789265 75.683478 -28.250859 66.966151 110.545944 -118.111046 53.185633 22.064597
-60.805200000000006 71.27449999999999 93.5946 -6.125927 -44.525549 14.376706 -13.854952 -14.008215 -180.0 -1.458547 2.256253 -179.169178 27.39822 -0.13611 134.892428 0.264439 8.372201 -125.581395 -60.743401 -17.156163 28.869123 1.432057 0.173965 13.851926 -156.758623 3.351598 169.329253 -136.647357 3.978698 171.320079 173.314755 10.200318 123.332762 -172.266819 13.670564 126.711442 6.526626 41.688253 18.108734 -43.556879 -23.019918 21.944336 -9.872346 58.969154 3.274467 -92.530895 28.68441 32.674165 -79.604864 30.583459 81.328381 -126.950197 26.787251 160.384201 -23.890099 -17.867292 42.149293 -80.408048 -12.105075 -115.4139 -160.479351 50.520654 163.025605 143.207006 -0.34599 138.950213 148.523649 28.627273 -152.711316 34.763878 -72.710442 36.959647 17.105904 -59.46758 -76.007762 -5.820226 -21.694654 10.731127 -172.557683 -12.359855 -67.912145 -155.586059 10.964456 -37.965483 168.672723 -46.499853 -66.825709 160.716514 2.805088 -85.182602 103.581575 28.696203 -88.067214 36.264663 30.61685 -86.445739 32.779894 -10.023905 -19.451994 133.062073 -9.659097 175.473711 170.761988 38.737918 145.863422 144.61249 -31.172656 124.608741 36.834713 -7.823901 68.778774 -37.626419 16.554348 11.565706 62.956844 2.635211 106.173616 20.511271 36.660427 148.090092 -35.750414 57.603605 -56.52874 109.773712 12.119204 -54.863853 -52.363625 -49.707332 89.711524 91.715524 19.495672 -8.36038
-61.9761 71.2641 92.265 -7.504971 -44.593169 14.261125 -6.988269 -10.478008 -118.231922 5.872832 -1.684074 119.256075 27.763595 -3.101238 102.013664 -3.141285 8.402939 -94.381808 -56.0306 -16.053045 29.688304 -3.109995 -0.145936 5.371925 -6.895119 36.490094 2.388405 171.528535 30.589138 -174.49596 -154.032981 6.801692 -168.798664 8.833045 -34.498931 -14.365044 67.319154 -5.648958 -1.696972 24.333085 -30.295116 29.517466 -81.451667 -82.145027 -140.571601 -0.855303 65.176795 27.625161 -153.379723 -5.737479 113.412326 -150.521128 -14.930994 118.180867 179.664785 -4.337883 141.386335 -106.776761 31.407769 82.692787 -35.416446 -53.35856 15.445653 83.327073 -28.794704 -41.946525 159.686918 -29.752761 -167.663768 148.827921 -25.323997 169.543488 69.172562 -43.489003 -41.147914 -33.538781 -60.861226 -6.457393 161.35221 -4.014547 -64.674449 133.331304 -58.448474 -28.467168 -43.483876 1.47164 -40.461617 -159.640625 75.494458 168.25003 174.688037 -17.262835 -114.949436 -9.814448 -48.920049 -53.254208 -135.552242 -30.341534 -141.70569 43.548947 27.668882 -1.326859 142.604634 -22.362767 110.987687 -44.299103 24.237591 69.999292 16.224217 -39.982027 24.363966 -5.783553 8.515807 -145.628391 -56.988923 -19.423323 3.704501 86.010475 58.812601 25.704264 -32.580569 56.787154 -54.049765 106.247476 5.657652 -180.0 75.781505 5.014696 141.193266 69.466 -17.916416 154.689655
